HIERARCHY
ROOT hip
{
	OFFSET 0.000000 0.000000 0.000000 
	CHANNELS 6 Xposition Yposition Zposition Xrotation Zrotation Yrotation
	JOINT abdomen
	{
		OFFSET 0.000000 3.402643 0.000000 
		CHANNELS 3 Xrotation Zrotation Yrotation
		JOINT chest
		{
			OFFSET 0.000000 8.438565 -0.680529 
			CHANNELS 3 Xrotation Zrotation Yrotation
			JOINT neck
			{
				OFFSET 0.000000 10.207942 -0.272212 
				CHANNELS 3 Xrotation Zrotation Yrotation
				JOINT head
				{
					OFFSET 0.000000 3.130431 0.000000 
					CHANNELS 3 Xrotation Zrotation Yrotation
					End Site
					{
						OFFSET 0.000000 3.130435 0.000000 
					}
				}
			}
			JOINT lCollar
			{
				OFFSET 3.470700 6.669187 -0.816635 
				CHANNELS 3 Yrotation Zrotation Xrotation
				JOINT lShldr
				{
					OFFSET 3.198488 0.000000 0.000000 
					CHANNELS 3 Zrotation Yrotation Xrotation
					JOINT lForeArm
					{
						OFFSET 10.139888 0.000000 0.000000 
						CHANNELS 3 Yrotation Zrotation Xrotation
						JOINT lHand
						{
							OFFSET 8.370511 0.000000 0.000000 
							CHANNELS 3 Zrotation Yrotation Xrotation
							End Site
							{
								OFFSET 4.083176 0.000000 0.000000 
							}
						}
					}
				}
			}
			JOINT rCollar
			{
				OFFSET -3.470700 6.669187 -0.816635 
				CHANNELS 3 Yrotation Zrotation Xrotation
				JOINT rShldr
				{
					OFFSET -3.198488 0.000000 0.000000 
					CHANNELS 3 Zrotation Yrotation Xrotation
					JOINT rForeArm
					{
						OFFSET -10.139888 0.000000 0.000000 
						CHANNELS 3 Yrotation Zrotation Xrotation
						JOINT rHand
						{
							OFFSET -8.370511 0.000000 0.000000 
							CHANNELS 3 Zrotation Yrotation Xrotation
							End Site
							{
								OFFSET -4.083176 0.000000 0.000000 
							}
						}
					}
				}
			}
		}
	}
	JOINT lThigh
	{
		OFFSET 5.308129 -1.633274 1.361059 
		CHANNELS 3 Xrotation Zrotation Yrotation
		JOINT lShin
		{
			OFFSET -2.041588 -20.007561 0.000000 
			CHANNELS 3 Xrotation Zrotation Yrotation
			JOINT lFoot
			{
				OFFSET 0.000000 -19.190928 -1.224953 
				CHANNELS 3 Xrotation Yrotation Zrotation
				End Site
				{
					OFFSET 0.000000 -2.449906 4.627600 
				}
			}
		}
	}
	JOINT rThigh
	{
		OFFSET -5.308129 -1.633274 1.361059 
		CHANNELS 3 Xrotation Zrotation Yrotation
		JOINT rShin
		{
			OFFSET 2.041588 -20.007561 0.000000 
			CHANNELS 3 Xrotation Zrotation Yrotation
			JOINT rFoot
			{
				OFFSET 0.000000 -19.190928 -1.224953 
				CHANNELS 3 Xrotation Yrotation Zrotation
				End Site
				{
					OFFSET 0.000000 -2.449906 4.627600 
				}
			}
		}
	}
}
MOTION
Frames: 11
Frame Time: 0.016667
0.350161 45.033272 -0.275914 -7.715480 -0.735469 4.064470 -18.118000 -1.385530 -2.862760 19.775200 1.122940 -1.597340 -2.028570 2.383970 -8.355280 6.745720 5.876360 -3.557360 2.000000 -2.000000 0.000000 87.695999 176.266006 -6.746560 24.834299 -0.338922 0.057480 0.080553 -0.097558 -170.095001 -2.000000 2.000000 0.000000 -90.458099 -173.091995 -2.527390 -28.818701 0.334632 0.065906 -0.080007 0.069511 -162.595993 7.267429 -7.811131 1.580386 16.199699 4.005866 1.048483 -15.685955 21.357775 4.607530 -5.406603 1.408444 7.326231 21.914303 -3.912344 -1.442600 -6.632530 -11.074787 -1.259418 
0.362529 45.016804 -0.327249 -7.824430 -1.344790 4.501140 -17.869101 -1.252370 -3.091670 19.872900 1.035080 -1.692040 -2.290910 3.759890 -9.065670 6.809510 6.539220 -3.801440 2.000000 -2.000000 0.000000 87.803101 176.751007 -5.515020 25.625299 -0.338117 0.059188 0.072827 -0.100601 -171.404007 -2.000000 2.000000 0.000000 -90.497200 -173.227997 -2.312200 -30.283501 0.332908 0.068947 -0.080150 0.069807 -162.712997 6.789531 -7.044798 1.771081 17.355230 4.018280 1.134595 -16.272505 20.755854 4.647191 -5.230270 2.022155 6.977622 21.778261 -3.898075 -1.450366 -6.638080 -11.261370 -1.289675 
0.341439 45.004448 -0.399526 -7.686440 -0.871010 4.951520 -17.839300 -1.293970 -3.119320 19.736099 1.367050 -1.718790 -0.748981 3.747900 -9.972830 7.298240 6.213530 -4.271970 2.000000 -2.000000 0.000000 87.812698 176.835999 -4.264830 27.197599 -0.336449 0.062547 -179.925003 -179.906006 7.365430 -2.000000 2.000000 0.000000 -90.721703 -173.011993 -1.619390 -32.373402 0.330316 0.073206 -0.082069 0.073647 -164.246002 6.463628 -7.411311 1.692573 17.531233 3.992785 1.130537 -15.904016 20.545856 4.438449 -5.823146 1.533383 6.674814 22.858055 -3.860698 -1.516333 -7.108367 -11.266069 -1.437530 
0.277519 45.001747 -0.519996 -6.934220 -0.765842 5.307970 -17.578899 -1.424040 -2.965960 20.107300 1.240200 -1.660110 -0.416375 4.796240 -11.059700 7.545990 6.455130 -4.738460 2.000000 -2.000000 0.000000 88.437500 177.457001 -2.603290 29.053101 -0.334362 0.066452 -179.923004 -179.904007 6.125200 -2.000000 2.000000 0.000000 -90.604698 -173.966995 -1.099380 -34.033600 0.328147 0.076521 -0.082856 0.075149 -164.850998 5.159974 -7.551846 1.863417 18.187696 3.977799 1.194289 -15.320666 20.471205 4.284883 -7.158038 1.349187 6.606493 23.812199 -3.672301 -1.612127 -7.253143 -11.481384 -1.626781 
0.248992 44.979351 -0.601587 -6.738370 -0.300643 5.611690 -17.585600 -1.482240 -3.121610 19.775101 1.611180 -1.760250 0.298963 5.227010 -11.787400 7.842230 6.598570 -5.095110 2.000000 -2.000000 0.000000 88.339798 177.065002 -1.891770 31.064800 -0.331958 0.070606 -179.921005 -179.901001 5.041200 -2.000000 2.000000 0.000000 -90.936798 -174.298004 -0.590722 -35.840199 0.325678 0.080055 -0.082499 0.074472 -164.578003 4.942790 -7.884664 1.925725 17.987022 3.890517 1.201973 -14.784000 20.241568 4.090759 -8.204910 0.749163 6.132856 25.581158 -3.558800 -1.742368 -8.342882 -11.215915 -1.880078 
0.218460 44.943447 -0.701186 -6.523440 0.029107 5.777920 -17.177799 -1.674430 -3.023350 19.863100 1.435440 -1.736120 0.623452 5.211640 -12.702100 8.037650 6.479730 -5.539820 2.000000 -2.000000 0.000000 88.867104 177.365005 -0.777767 33.183899 -0.329269 0.074888 -179.919006 -179.888000 3.634980 -2.000000 2.000000 0.000000 -91.054398 -175.945999 0.565821 -37.070702 0.323934 0.082417 -0.083126 0.075656 -165.056000 4.670221 -8.124306 1.938775 18.007254 3.798532 1.218151 -14.813879 19.852791 4.080712 -9.219760 0.298611 5.747560 27.255680 -3.455148 -1.881433 -9.081363 -10.938472 -2.052614 
0.164549 44.915001 -0.711522 -6.213060 1.495080 6.214260 -16.790701 -2.097090 -2.930060 20.068199 1.669860 -1.762280 0.401775 5.983970 -13.436000 7.992080 6.830930 -5.872710 2.000000 -2.000000 0.000000 89.101402 177.315002 -0.133354 35.459400 -0.326208 0.079371 -179.917999 -179.897003 3.312690 -2.000000 2.000000 0.000000 -91.308502 -177.595001 1.029020 -38.232800 0.322240 0.084612 -0.082309 0.074108 -164.431000 5.472015 -9.634641 1.685902 15.849791 3.794987 1.073372 -13.156944 19.950758 3.520436 -10.571474 -1.353258 5.659240 29.670666 -3.388297 -2.048932 -11.175092 -10.748091 -2.454358 
0.023985 44.975620 -0.907750 -5.429720 0.184714 6.535180 -16.797100 -1.552030 -3.002750 19.501600 1.581760 -1.718570 -0.073904 6.948690 -14.108600 7.849510 7.309860 -6.161210 2.000000 -2.000000 0.000000 89.072098 177.470001 0.296705 37.373402 -0.323497 0.083046 -179.906998 -179.886002 2.609590 -2.000000 2.000000 0.000000 -92.158302 -179.546005 2.098540 -39.306999 0.320635 0.086611 -0.082779 0.075004 -164.792999 3.639511 -8.061604 1.758696 17.170473 3.638869 1.172405 -13.580842 19.553978 3.729917 -11.685984 0.084322 5.916785 28.899067 -3.248275 -2.022626 -11.251277 -11.857694 -2.801533 
-0.096775 45.013454 -1.029941 -4.658250 0.243334 7.323920 -16.404600 -1.555530 -3.096190 19.491800 1.532940 -1.756990 0.680146 7.060640 -14.595900 8.163890 7.248010 -6.418620 2.000000 -2.000000 0.000000 89.394501 177.966003 1.020550 39.394901 -0.320502 0.086826 -179.904999 -179.884003 1.603740 -2.000000 2.000000 0.000000 -92.705200 177.682999 3.052420 -40.039501 0.319519 0.087956 -0.082246 0.073987 -164.382996 2.469502 -7.845973 1.668442 17.528559 3.463988 1.253115 -12.945234 19.013012 3.549992 -12.652421 -0.169334 5.544527 28.369934 -3.227188 -2.003849 -10.838449 -12.942045 -2.975986 
-0.290535 45.097885 -1.223903 -3.623060 -0.175430 7.833370 -16.202600 -1.260560 -2.919390 19.149900 1.552270 -1.629900 1.575830 7.282340 -14.959700 8.488500 7.224810 -6.622390 2.000000 -2.000000 0.000000 89.345703 178.240005 1.001670 41.787498 -0.316788 0.091161 -179.914993 -179.893997 1.662310 -2.000000 2.000000 0.000000 -93.417702 174.744995 3.685310 -40.586300 0.318675 0.088951 -0.082132 0.073769 -164.294998 0.962127 -7.158383 1.536011 17.483654 3.339045 1.266110 -12.871333 18.429274 3.535999 -13.938495 0.198743 5.816365 27.098326 -3.156910 -1.962499 -8.788679 -14.134690 -2.786524 
-0.370332 45.082958 -1.193100 -3.009130 1.696880 8.729210 -15.610800 -1.644890 -2.753160 19.325600 1.786700 -1.620400 2.250560 7.527490 -14.892200 8.666030 7.251890 -6.627230 2.000000 -2.000000 0.000000 89.414101 178.649002 1.559510 43.643002 -0.313785 0.094413 -179.914001 -179.893005 1.017780 -2.000000 2.000000 0.000000 -94.374001 171.738998 4.347230 -40.937901 0.318127 0.089586 -0.082397 0.074278 -164.500000 1.666547 -8.989429 1.631823 15.184052 3.158817 1.139503 -11.074658 17.995213 3.032596 -14.806590 -2.114768 5.211079 27.695526 -3.262776 -1.960907 -6.551949 -14.173878 -2.178371 
